<svg width="97" height="40" viewBox="0 0 97 40" fill="none" xmlns="http://www.w3.org/2000/svg">
<path d="M18.2851 0.135933C17.4335 0.318417 17.1674 0.417259 16.3995 0.812641C15.6391 1.19282 14.7343 1.99118 14.2553 2.69071C13.9968 3.06328 13.9359 3.1089 13.6926 3.1089C12.803 3.1165 11.5256 3.62594 10.6664 4.32546C9.44225 5.31392 8.66669 6.99429 8.66669 8.64425V9.24492L7.97477 9.69353C7.14599 10.2334 6.14993 11.237 5.69372 12.005C4.97139 13.2292 4.67485 14.4001 4.72807 15.8752C4.75849 16.6355 4.80411 16.9245 4.94097 17.2818C5.41999 18.5212 6.7354 19.023 7.95196 18.43C8.18007 18.3159 8.59826 18.0118 8.8948 17.738C9.48787 17.1906 9.71598 17.0993 9.99731 17.2818C10.3547 17.5175 10.2634 17.7684 9.59432 18.4071C8.8872 19.0762 8.469 19.3728 7.73146 19.7225C6.97871 20.0875 6.62895 20.1331 4.81931 20.1407L3.24539 20.1559L3.0553 19.9126C2.69033 19.4488 1.99841 19.2283 1.36732 19.3804C-0.183799 19.753 -0.503146 21.8059 0.865486 22.6119C1.46616 22.9616 2.24172 22.9388 2.81959 22.551C3.0477 22.399 3.36704 22.0112 3.43547 21.8059C3.45068 21.7603 3.73201 21.7603 4.19583 21.7907L4.94097 21.8515L4.97139 22.9921C5.0094 24.5432 5.29073 25.7141 5.88381 26.8014C6.18034 27.3413 6.16514 27.3641 5.55686 27.3641C5.2223 27.3641 5.17668 27.3413 5.0094 27.0827C4.43914 26.2083 2.87281 26.2463 2.21131 27.1512C1.40534 28.2461 2.08205 29.8124 3.44308 29.9949C4.12739 30.0937 4.87254 29.7211 5.17668 29.1433L5.35916 28.8087H7.18401C10.1266 28.8087 10.4383 28.6567 11.1683 26.9155C11.6169 25.8662 12.0122 25.5392 12.3924 25.9194C12.5749 26.1019 12.5901 26.3528 12.4304 26.5809C12.3696 26.6721 12.1643 27.1131 11.9742 27.5618C11.5712 28.5122 11.3279 28.8543 10.2102 30.0329C9.7616 30.5119 9.13811 31.181 8.83397 31.5232L8.27891 32.1391L7.73146 32.101C7.26765 32.063 7.11558 32.0858 6.78102 32.2303C6.0891 32.5268 5.70132 33.1123 5.70132 33.8651C5.70132 34.9143 6.41605 35.6063 7.49575 35.6139C7.95957 35.6139 8.08122 35.5834 8.40057 35.3858C8.96323 35.036 9.21415 34.6254 9.26737 33.9791C9.31299 33.4469 9.31299 33.4393 9.83764 32.8386C10.1342 32.504 10.3927 32.2303 10.4307 32.2303C10.4611 32.2303 10.4915 32.3444 10.4915 32.4888C10.4915 32.8842 10.8489 34.0247 11.1606 34.6254C11.4952 35.2717 12.3924 36.1993 12.9931 36.5187C13.2212 36.6403 13.6394 36.8152 13.9283 36.9065C14.3693 37.0433 14.4758 37.1194 14.6811 37.4083C15.0689 37.9481 15.7456 38.6096 16.217 38.891C17.8289 39.8794 20.0872 40.0315 21.5242 39.2483C22.0413 38.967 22.7788 38.161 23.0525 37.5832C23.4403 36.7544 23.4935 36.1689 23.4935 32.9678L23.4859 30.0861L22.5507 27.0371C21.0756 22.2545 20.3609 19.905 20.2697 19.5401L20.1784 19.1979L19.7374 20.3384C19.0303 22.1481 18.8478 22.5587 18.7033 22.6879C18.5817 22.802 18.2167 22.8096 15.3806 22.8096L12.2023 22.802L12.0351 22.6043C11.8069 22.3534 11.8145 22.1024 12.0427 21.8363L12.2251 21.6234H15.0384H17.8593L18.7946 19.2435C19.3116 17.9357 19.7906 16.7952 19.8667 16.7116C20.0492 16.5215 20.475 16.5215 20.6574 16.7116C20.7335 16.7952 21.0832 17.7837 21.4254 18.9014C21.7676 20.0191 22.5279 22.475 23.1058 24.3455L24.1551 27.7518L24.406 27.0447C24.5428 26.6569 25.4248 24.3151 26.3601 21.8515C28.2077 16.9777 28.2229 16.9473 28.778 16.9473C29.295 16.9473 29.3863 17.1145 29.9261 19.0382C30.1922 20.0039 30.5192 21.152 30.6485 21.6006L30.8842 22.4142L31.0971 22.2013C31.6597 21.6386 32.1159 21.5778 35.279 21.6006L37.8794 21.6234L38.0619 21.8363C38.2824 22.0948 38.2976 22.3382 38.0923 22.5967L37.9402 22.7944L35.1802 22.8172C32.4733 22.84 32.4201 22.84 32.0627 23.0149C31.8498 23.1213 31.6141 23.3266 31.4696 23.5243C31.1199 24.0109 30.7321 24.163 30.3139 23.9881C30.1618 23.9273 29.987 23.798 29.9261 23.6992C29.8273 23.5471 28.8312 19.9811 28.7248 19.4184C28.7096 19.3348 28.451 19.9278 28.1393 20.749C27.8276 21.5626 27.2041 23.2049 26.7479 24.3987C26.2916 25.5924 25.6986 27.212 25.4248 28.0104L24.9306 29.455L24.9382 32.6865C24.9458 36.2602 24.9762 36.5947 25.4096 37.4767C25.7214 38.1154 26.4741 38.8758 27.1432 39.2027C28.74 40.0087 31.5153 40.0239 33.9484 39.2559C35.2106 38.8606 36.9442 37.8873 37.811 37.0965C39.1796 35.842 40.2441 33.6902 40.419 31.8045L40.4646 31.2723L40.9208 31.0213C41.4759 30.7172 42.4035 29.8504 42.8521 29.2193C43.2931 28.6034 43.7569 27.615 43.9546 26.8698C44.1675 26.0715 44.2359 24.3303 44.0763 23.4559L43.9698 22.8476L44.2207 22.3153C44.8518 20.9315 45.0495 19.9811 45.0495 18.2399C45.0495 16.7952 44.9583 16.1945 44.5629 15.0236C44.1371 13.7842 43.582 12.8642 42.6468 11.8909L42.0537 11.2751L41.9777 10.6516C41.6736 8.25647 40.3886 6.35559 38.3052 5.24548C37.773 4.95655 36.6248 4.55357 36.3587 4.55357C36.2751 4.55357 36.0546 4.28744 35.7732 3.85404C34.1613 1.3829 31.2339 -0.114983 28.2457 0.0142746C27.052 0.0675011 26.4589 0.249985 25.9343 0.721401C25.4933 1.11678 25.1359 1.78589 25.0143 2.42458C24.961 2.69831 24.9382 5.96782 24.9382 11.9594C24.9458 17.4187 24.923 21.0988 24.8774 21.1444C24.8394 21.1824 24.5428 21.2052 24.2083 21.19L23.6076 21.1672L23.5164 20.9011C23.4479 20.7034 23.4251 18.4452 23.4175 11.8529C23.4175 4.61439 23.3947 2.97964 23.3111 2.56905C23.0297 1.24604 22.1249 0.288002 20.954 0.0751038C20.2849 -0.0465546 18.9847 -0.01614 18.2851 0.135933ZM17.7453 6.67494C18.0342 6.97908 17.9734 7.17677 17.4868 7.54174C16.7188 8.11961 16.3691 8.87996 16.4451 9.80758C16.5287 10.8265 17.1142 11.5184 18.1483 11.8225C18.3612 11.8833 18.5817 11.9822 18.6273 12.043C18.7642 12.2103 18.7414 12.522 18.5817 12.6969C18.1255 13.1987 16.3386 12.2635 15.8216 11.2599C15.1373 9.91403 15.3882 8.18043 16.4299 7.14636C16.7872 6.78139 17.2587 6.45444 17.4107 6.45444C17.4792 6.45444 17.6312 6.55328 17.7453 6.67494ZM36.085 7.40488C36.2751 7.59496 36.2751 7.59496 36.2675 9.01682L36.2523 10.4463L37.7425 10.4159C38.845 10.4007 39.2632 10.4159 39.3469 10.4843C39.5218 10.6288 39.5142 13.6169 39.3393 13.7614C39.2404 13.8374 38.8831 13.8602 37.7197 13.8374L36.2294 13.8146V15.2973C36.2294 16.4378 36.2066 16.8028 36.123 16.894C35.9709 17.0841 33.2261 17.0841 33.0436 16.9016C32.9371 16.8028 32.9219 16.5443 32.9219 15.2821V13.7766L32.5645 13.7994C32.3592 13.8146 31.6901 13.8374 31.0667 13.8602C29.5459 13.8983 29.6524 14.0275 29.6524 12.1343C29.6524 10.7732 29.66 10.6516 29.7969 10.5223C29.9337 10.4083 30.101 10.3931 31.4316 10.4159L32.9219 10.4463V8.94839C32.9219 7.48851 32.9295 7.4505 33.0892 7.33644C33.2261 7.2376 33.5074 7.21479 34.5795 7.21479C35.8797 7.21479 35.8949 7.21479 36.085 7.40488ZM12.1263 13.0011C12.362 13.1911 12.3544 13.3432 12.0883 14.1036C11.9438 14.4989 11.9362 14.613 12.0046 14.8791C12.0579 15.054 12.1871 15.2973 12.2936 15.4342C12.5141 15.6927 13.1604 16.0348 13.4265 16.0348C13.8599 16.0348 13.9968 16.8104 13.6014 17.0005C13.1528 17.221 11.8374 16.5671 11.3735 15.898C11.1302 15.5406 10.9477 14.9856 10.9477 14.5826C10.9477 14.134 11.2367 13.2976 11.48 13.0543C11.7385 12.7958 11.8526 12.7882 12.1263 13.0011ZM39.2328 27.4553C38.9895 28.9 37.8566 30.1545 36.4575 30.5195C35.9025 30.664 34.9901 30.664 34.473 30.5271C33.6823 30.3142 32.5493 29.6983 33.2337 29.858C33.3781 29.8884 33.9712 29.9112 34.5567 29.9112C35.3854 29.9112 35.7124 29.8808 36.0394 29.7668C37.6437 29.2345 38.7158 28.0408 39.2024 26.2616C39.3089 25.8738 39.3317 26.8546 39.2328 27.4553ZM17.9734 28.4362C18.2091 28.6186 18.2395 28.9532 18.0418 29.1281C17.9658 29.1965 17.7073 29.341 17.464 29.4626C16.582 29.8884 16.1257 30.5423 16.0573 31.4776C16.0117 32.1239 16.179 32.7093 16.5363 33.1199C16.8025 33.4317 17.2815 33.7586 17.6388 33.8651C18.1255 34.0095 18.2243 34.3593 17.8746 34.6938C17.654 34.9067 17.6464 34.9067 17.2739 34.8003C16.8177 34.6634 16.1333 34.2224 15.8064 33.8422C15.3958 33.3708 15.1221 32.6941 15.0765 32.0022C14.97 30.4435 15.6239 29.2573 16.9773 28.5806C17.3119 28.4133 17.6236 28.2765 17.6769 28.2765C17.7301 28.2765 17.8593 28.3449 17.9734 28.4362Z" fill="#3FA9F5"/>
<path d="M53.888 33.096C53.184 33.096 52.512 33 51.872 32.808C51.2427 32.616 50.7467 32.3813 50.384 32.104L51.024 30.888C51.3867 31.1333 51.8347 31.3413 52.368 31.512C52.9013 31.6827 53.4453 31.768 54 31.768C54.7147 31.768 55.2267 31.6667 55.536 31.464C55.856 31.2613 56.016 30.9787 56.016 30.616C56.016 30.3493 55.92 30.1413 55.728 29.992C55.536 29.8427 55.28 29.7307 54.96 29.656C54.6507 29.5813 54.304 29.5173 53.92 29.464C53.536 29.4 53.152 29.3253 52.768 29.24C52.384 29.144 52.032 29.016 51.712 28.856C51.392 28.6853 51.136 28.456 50.944 28.168C50.752 27.8693 50.656 27.4747 50.656 26.984C50.656 26.472 50.8 26.024 51.088 25.64C51.376 25.256 51.7813 24.9627 52.304 24.76C52.8373 24.5467 53.4667 24.44 54.192 24.44C54.7467 24.44 55.3067 24.5093 55.872 24.648C56.448 24.776 56.9173 24.9627 57.28 25.208L56.624 26.424C56.24 26.168 55.84 25.992 55.424 25.896C55.008 25.8 54.592 25.752 54.176 25.752C53.504 25.752 53.0027 25.864 52.672 26.088C52.3413 26.3013 52.176 26.5787 52.176 26.92C52.176 27.208 52.272 27.432 52.464 27.592C52.6667 27.7413 52.9227 27.8587 53.232 27.944C53.552 28.0293 53.904 28.104 54.288 28.168C54.672 28.2213 55.056 28.296 55.44 28.392C55.824 28.4773 56.1707 28.6 56.48 28.76C56.8 28.92 57.056 29.144 57.248 29.432C57.4507 29.72 57.552 30.104 57.552 30.584C57.552 31.096 57.4027 31.5387 57.104 31.912C56.8053 32.2853 56.384 32.5787 55.84 32.792C55.296 32.9947 54.6453 33.096 53.888 33.096ZM63.2476 33.096C62.341 33.096 61.541 32.9093 60.8476 32.536C60.165 32.1627 59.6316 31.6507 59.2476 31C58.8743 30.3493 58.6876 29.6027 58.6876 28.76C58.6876 27.9173 58.869 27.1707 59.2316 26.52C59.605 25.8693 60.1116 25.3627 60.7516 25C61.4023 24.6267 62.133 24.44 62.9436 24.44C63.765 24.44 64.4903 24.6213 65.1196 24.984C65.749 25.3467 66.2396 25.8587 66.5916 26.52C66.9543 27.1707 67.1356 27.9333 67.1356 28.808C67.1356 28.872 67.1303 28.9467 67.1196 29.032C67.1196 29.1173 67.1143 29.1973 67.1036 29.272H59.8876V28.168H66.3036L65.6796 28.552C65.6903 28.008 65.5783 27.5227 65.3436 27.096C65.109 26.6693 64.7836 26.3387 64.3676 26.104C63.9623 25.8587 63.4876 25.736 62.9436 25.736C62.4103 25.736 61.9356 25.8587 61.5196 26.104C61.1036 26.3387 60.7783 26.6747 60.5436 27.112C60.309 27.5387 60.1916 28.0293 60.1916 28.584V28.84C60.1916 29.4053 60.3196 29.912 60.5756 30.36C60.8423 30.7973 61.2103 31.1387 61.6796 31.384C62.149 31.6293 62.6876 31.752 63.2956 31.752C63.797 31.752 64.2503 31.6667 64.6556 31.496C65.0716 31.3253 65.4343 31.0693 65.7436 30.728L66.5916 31.72C66.2076 32.168 65.7276 32.5093 65.1516 32.744C64.5863 32.9787 63.9516 33.096 63.2476 33.096ZM73.7965 24.44C74.4898 24.44 75.0978 24.5733 75.6205 24.84C76.1538 25.1067 76.5698 25.512 76.8685 26.056C77.1672 26.6 77.3165 27.288 77.3165 28.12V33H75.7805V28.296C75.7805 27.4747 75.5778 26.856 75.1725 26.44C74.7778 26.024 74.2178 25.816 73.4925 25.816C72.9485 25.816 72.4738 25.9227 72.0685 26.136C71.6632 26.3493 71.3485 26.664 71.1245 27.08C70.9112 27.496 70.8045 28.0133 70.8045 28.632V33H69.2685V24.52H70.7405V26.808L70.5005 26.2C70.7778 25.6453 71.2045 25.2133 71.7805 24.904C72.3565 24.5947 73.0285 24.44 73.7965 24.44ZM82.5911 33.096C81.8871 33.096 81.2151 33 80.5751 32.808C79.9458 32.616 79.4498 32.3813 79.0871 32.104L79.7271 30.888C80.0898 31.1333 80.5378 31.3413 81.0711 31.512C81.6045 31.6827 82.1485 31.768 82.7031 31.768C83.4178 31.768 83.9298 31.6667 84.2391 31.464C84.5591 31.2613 84.7191 30.9787 84.7191 30.616C84.7191 30.3493 84.6231 30.1413 84.4311 29.992C84.2391 29.8427 83.9831 29.7307 83.6631 29.656C83.3538 29.5813 83.0071 29.5173 82.6231 29.464C82.2391 29.4 81.8551 29.3253 81.4711 29.24C81.0871 29.144 80.7351 29.016 80.4151 28.856C80.0951 28.6853 79.8391 28.456 79.6471 28.168C79.4551 27.8693 79.3591 27.4747 79.3591 26.984C79.3591 26.472 79.5031 26.024 79.7911 25.64C80.0791 25.256 80.4845 24.9627 81.0071 24.76C81.5405 24.5467 82.1698 24.44 82.8951 24.44C83.4498 24.44 84.0098 24.5093 84.5751 24.648C85.1511 24.776 85.6205 24.9627 85.9831 25.208L85.3271 26.424C84.9431 26.168 84.5431 25.992 84.1271 25.896C83.7111 25.8 83.2951 25.752 82.8791 25.752C82.2071 25.752 81.7058 25.864 81.3751 26.088C81.0445 26.3013 80.8791 26.5787 80.8791 26.92C80.8791 27.208 80.9751 27.432 81.1671 27.592C81.3698 27.7413 81.6258 27.8587 81.9351 27.944C82.2551 28.0293 82.6071 28.104 82.9911 28.168C83.3751 28.2213 83.7591 28.296 84.1431 28.392C84.5271 28.4773 84.8738 28.6 85.1831 28.76C85.5031 28.92 85.7591 29.144 85.9511 29.432C86.1538 29.72 86.2551 30.104 86.2551 30.584C86.2551 31.096 86.1058 31.5387 85.8071 31.912C85.5085 32.2853 85.0871 32.5787 84.5431 32.792C83.9991 32.9947 83.3485 33.096 82.5911 33.096ZM91.9508 33.096C91.0441 33.096 90.2441 32.9093 89.5508 32.536C88.8681 32.1627 88.3348 31.6507 87.9508 31C87.5774 30.3493 87.3908 29.6027 87.3908 28.76C87.3908 27.9173 87.5721 27.1707 87.9348 26.52C88.3081 25.8693 88.8148 25.3627 89.4548 25C90.1054 24.6267 90.8361 24.44 91.6468 24.44C92.4681 24.44 93.1934 24.6213 93.8228 24.984C94.4521 25.3467 94.9428 25.8587 95.2948 26.52C95.6574 27.1707 95.8388 27.9333 95.8388 28.808C95.8388 28.872 95.8334 28.9467 95.8228 29.032C95.8228 29.1173 95.8174 29.1973 95.8068 29.272H88.5908V28.168H95.0068L94.3828 28.552C94.3934 28.008 94.2814 27.5227 94.0468 27.096C93.8121 26.6693 93.4868 26.3387 93.0708 26.104C92.6654 25.8587 92.1908 25.736 91.6468 25.736C91.1134 25.736 90.6388 25.8587 90.2228 26.104C89.8068 26.3387 89.4814 26.6747 89.2468 27.112C89.0121 27.5387 88.8948 28.0293 88.8948 28.584V28.84C88.8948 29.4053 89.0228 29.912 89.2788 30.36C89.5454 30.7973 89.9134 31.1387 90.3828 31.384C90.8521 31.6293 91.3908 31.752 91.9988 31.752C92.5001 31.752 92.9534 31.6667 93.3588 31.496C93.7748 31.3253 94.1374 31.0693 94.4468 30.728L95.2948 31.72C94.9108 32.168 94.4308 32.5093 93.8548 32.744C93.2894 32.9787 92.6548 33.096 91.9508 33.096Z" fill="#3FA9F5"/>
<path d="M55.008 19.192C54.112 19.192 53.2533 19.0747 52.432 18.84C51.6107 18.5947 50.9493 18.28 50.448 17.896L51.328 15.944C51.808 16.2853 52.3733 16.568 53.024 16.792C53.6853 17.0053 54.352 17.112 55.024 17.112C55.536 17.112 55.9467 17.064 56.256 16.968C56.576 16.8613 56.8107 16.7173 56.96 16.536C57.1093 16.3547 57.184 16.1467 57.184 15.912C57.184 15.6133 57.0667 15.3787 56.832 15.208C56.5973 15.0267 56.288 14.8827 55.904 14.776C55.52 14.6587 55.0933 14.552 54.624 14.456C54.1653 14.3493 53.7013 14.2213 53.232 14.072C52.7733 13.9227 52.352 13.7307 51.968 13.496C51.584 13.2613 51.2693 12.952 51.024 12.568C50.7893 12.184 50.672 11.6933 50.672 11.096C50.672 10.456 50.8427 9.87467 51.184 9.352C51.536 8.81867 52.0587 8.39733 52.752 8.088C53.456 7.768 54.336 7.608 55.392 7.608C56.096 7.608 56.7893 7.69333 57.472 7.864C58.1547 8.024 58.7573 8.26933 59.28 8.6L58.48 10.568C57.9573 10.2693 57.4347 10.0507 56.912 9.912C56.3893 9.76267 55.8773 9.688 55.376 9.688C54.8747 9.688 54.464 9.74667 54.144 9.864C53.824 9.98133 53.5947 10.136 53.456 10.328C53.3173 10.5093 53.248 10.7227 53.248 10.968C53.248 11.256 53.3653 11.4907 53.6 11.672C53.8347 11.8427 54.144 11.9813 54.528 12.088C54.912 12.1947 55.3333 12.3013 55.792 12.408C56.2613 12.5147 56.7253 12.6373 57.184 12.776C57.6533 12.9147 58.08 13.1013 58.464 13.336C58.848 13.5707 59.1573 13.88 59.392 14.264C59.6373 14.648 59.76 15.1333 59.76 15.72C59.76 16.3493 59.584 16.9253 59.232 17.448C58.88 17.9707 58.352 18.392 57.648 18.712C56.9547 19.032 56.0747 19.192 55.008 19.192ZM60.0591 19L65.0511 7.8H67.6111L72.6191 19H69.8991L65.8031 9.112H66.8271L62.7151 19H60.0591ZM62.5551 16.6L63.2431 14.632H69.0031L69.7071 16.6H62.5551ZM73.7811 19V7.8H78.6291C79.6318 7.8 80.4958 7.96533 81.2211 8.296C81.9465 8.616 82.5065 9.08 82.9011 9.688C83.2958 10.296 83.4931 11.0213 83.4931 11.864C83.4931 12.696 83.2958 13.416 82.9011 14.024C82.5065 14.632 81.9465 15.1013 81.2211 15.432C80.4958 15.752 79.6318 15.912 78.6291 15.912H75.2211L76.3731 14.744V19H73.7811ZM76.3731 15.032L75.2211 13.8H78.4851C79.2851 13.8 79.8825 13.6293 80.2771 13.288C80.6718 12.9467 80.8691 12.472 80.8691 11.864C80.8691 11.2453 80.6718 10.7653 80.2771 10.424C79.8825 10.0827 79.2851 9.912 78.4851 9.912H75.2211L76.3731 8.68V15.032ZM89.1799 19.192C88.2839 19.192 87.4252 19.0747 86.6039 18.84C85.7825 18.5947 85.1212 18.28 84.6199 17.896L85.4999 15.944C85.9799 16.2853 86.5452 16.568 87.1959 16.792C87.8572 17.0053 88.5239 17.112 89.1959 17.112C89.7079 17.112 90.1185 17.064 90.4279 16.968C90.7479 16.8613 90.9825 16.7173 91.1319 16.536C91.2812 16.3547 91.3559 16.1467 91.3559 15.912C91.3559 15.6133 91.2385 15.3787 91.0039 15.208C90.7692 15.0267 90.4599 14.8827 90.0759 14.776C89.6919 14.6587 89.2652 14.552 88.7959 14.456C88.3372 14.3493 87.8732 14.2213 87.4039 14.072C86.9452 13.9227 86.5239 13.7307 86.1399 13.496C85.7559 13.2613 85.4412 12.952 85.1959 12.568C84.9612 12.184 84.8439 11.6933 84.8439 11.096C84.8439 10.456 85.0145 9.87467 85.3559 9.352C85.7079 8.81867 86.2305 8.39733 86.9239 8.088C87.6279 7.768 88.5079 7.608 89.5639 7.608C90.2679 7.608 90.9612 7.69333 91.6439 7.864C92.3265 8.024 92.9292 8.26933 93.4519 8.6L92.6519 10.568C92.1292 10.2693 91.6065 10.0507 91.0839 9.912C90.5612 9.76267 90.0492 9.688 89.5479 9.688C89.0465 9.688 88.6359 9.74667 88.3159 9.864C87.9959 9.98133 87.7665 10.136 87.6279 10.328C87.4892 10.5093 87.4199 10.7227 87.4199 10.968C87.4199 11.256 87.5372 11.4907 87.7719 11.672C88.0065 11.8427 88.3159 11.9813 88.6999 12.088C89.0839 12.1947 89.5052 12.3013 89.9639 12.408C90.4332 12.5147 90.8972 12.6373 91.3559 12.776C91.8252 12.9147 92.2519 13.1013 92.6359 13.336C93.0199 13.5707 93.3292 13.88 93.5639 14.264C93.8092 14.648 93.9319 15.1333 93.9319 15.72C93.9319 16.3493 93.7559 16.9253 93.4039 17.448C93.0519 17.9707 92.5239 18.392 91.8199 18.712C91.1265 19.032 90.2465 19.192 89.1799 19.192Z" fill="#3FA9F5"/>
</svg>
