<svg width="132" height="120" viewBox="0 0 132 120" fill="none" xmlns="http://www.w3.org/2000/svg">
<path d="M54.8979 0.291183C53.073 0.68222 52.5028 0.894028 50.8572 1.74128C49.2278 2.55594 47.2889 4.26673 46.2625 5.76571C45.7085 6.56408 45.5782 6.66184 45.0568 6.66184C43.1505 6.67813 40.4132 7.76978 38.5721 9.26876C35.9488 11.3869 34.2869 14.9877 34.2869 18.5233V19.8105L32.8042 20.7718C31.0283 21.9286 28.8939 24.0793 27.9163 25.7249C26.3684 28.3481 25.733 30.8573 25.847 34.0182C25.9122 35.6475 26.01 36.2667 26.3032 37.0324C27.3297 39.6882 30.1485 40.7636 32.7554 39.4927C33.2442 39.2483 34.1403 38.5966 34.7757 38.01C36.0466 36.8369 36.5354 36.6414 37.1383 37.0324C37.904 37.5375 37.7085 38.0752 36.2747 39.4438C34.7594 40.8776 33.8633 41.5131 32.2829 42.2626C30.6698 43.0447 29.9203 43.1424 26.0426 43.1587L22.6699 43.1913L22.2625 42.6699C21.4804 41.676 19.9978 41.2035 18.6454 41.5294C15.3216 42.3277 14.6373 46.7269 17.5701 48.454C18.8572 49.2035 20.5191 49.1546 21.7574 48.3237C22.2462 47.9978 22.9305 47.1668 23.0772 46.7269C23.1098 46.6292 23.7126 46.6292 24.7065 46.6943L26.3032 46.8247L26.3684 49.2687C26.4499 52.5925 27.0527 55.1016 28.3236 57.4316C28.959 58.5884 28.9265 58.6373 27.623 58.6373C26.9061 58.6373 26.8083 58.5884 26.4499 58.0344C25.2279 56.1607 21.8715 56.2422 20.454 58.1811C18.7269 60.5273 20.177 63.8837 23.0935 64.2747C24.5599 64.4866 26.1566 63.6882 26.8083 62.4499L27.1994 61.733H31.1098C37.4152 61.733 38.0833 61.4071 39.6474 57.676C40.6087 55.4275 41.456 54.7269 42.2706 55.5416C42.6617 55.9326 42.6942 56.4703 42.3521 56.9591C42.2217 57.1546 41.7818 58.0996 41.3745 59.0609C40.511 61.0976 39.9896 61.8308 37.5945 64.3562C36.6332 65.3827 35.2971 66.8165 34.6454 67.5497L33.456 68.8694L32.2829 68.788C31.289 68.7065 30.9631 68.7554 30.2462 69.065C28.7635 69.7004 27.9326 70.955 27.9326 72.568C27.9326 74.8165 29.4641 76.2992 31.7778 76.3154C32.7717 76.3154 33.0324 76.2503 33.7167 75.8267C34.9224 75.0772 35.46 74.1973 35.5741 72.8124C35.6719 71.6719 35.6719 71.6556 36.7961 70.3684C37.4315 69.6515 37.9855 69.065 38.067 69.065C38.1321 69.065 38.1973 69.3094 38.1973 69.6189C38.1973 70.4662 38.9631 72.9102 39.6311 74.1973C40.348 75.5823 42.2706 77.57 43.5578 78.2543C44.0466 78.515 44.9427 78.8898 45.5619 79.0853C46.5069 79.3786 46.735 79.5415 47.1749 80.1607C48.0058 81.3175 49.4559 82.735 50.4661 83.3378C53.9203 85.456 58.7594 85.7818 61.8388 84.1036C62.9467 83.5008 64.5272 81.7737 65.1138 80.5354C65.9447 78.7594 66.0588 77.5049 66.0588 70.6454L66.0425 64.4703L64.0384 57.9367C60.8775 47.6882 59.3459 42.6536 59.1504 41.8715L58.9549 41.1383L58.0099 43.5823C56.4946 47.4601 56.1036 48.34 55.794 48.6169C55.5333 48.8613 54.7512 48.8776 48.6739 48.8776L41.8633 48.8613L41.5048 48.4377C41.016 47.9 41.0323 47.3624 41.5211 46.7921L41.9122 46.3359H47.9407H53.9855L55.9895 41.2361C57.0975 38.4337 58.1239 35.9897 58.2869 35.8104C58.6779 35.4031 59.5903 35.4031 59.9814 35.8104C60.1443 35.9897 60.8938 38.1078 61.627 40.5029C62.3602 42.898 63.9895 48.1607 65.2278 52.1689L67.4763 59.4682L68.0139 57.953C68.3072 57.122 70.1972 52.1037 72.2013 46.8247C76.1606 36.3807 76.1932 36.3155 77.3826 36.3155C78.4905 36.3155 78.686 36.674 79.8428 40.7962C80.4131 42.8654 81.1137 45.3257 81.3907 46.287L81.8958 48.0304L82.352 47.5742C83.5577 46.3685 84.5353 46.2381 91.3133 46.287L96.8856 46.3359L97.2766 46.7921C97.7491 47.3461 97.7817 47.8675 97.3418 48.4214L97.0159 48.845L91.1015 48.8939C85.3011 48.9428 85.187 48.9428 84.4212 49.3175C83.965 49.5457 83.4599 49.9856 83.1504 50.4092C82.4009 51.452 81.5699 51.7778 80.6738 51.4031C80.3479 51.2727 79.9732 50.9958 79.8428 50.7839C79.631 50.4581 77.4966 42.8165 77.2685 41.6108C77.2359 41.4316 76.6819 42.7025 76.0139 44.4622C75.3459 46.2055 74.0099 49.7249 73.0323 52.2829C72.0547 54.841 70.7838 58.3114 70.1972 60.0222L69.1382 63.1179L69.1545 70.0426C69.1708 77.7004 69.2359 78.4173 70.1647 80.3073C70.8327 81.6759 72.4457 83.3053 73.8795 84.0059C77.3011 85.7329 83.2481 85.7655 88.462 84.1199C91.1666 83.2727 94.8815 81.1871 96.7389 79.4926C99.6717 76.8042 101.953 72.1933 102.328 68.1525L102.425 67.012L103.403 66.4743C104.592 65.8226 106.58 63.9652 107.541 62.6128C108.486 61.2931 109.48 59.175 109.904 57.5782C110.36 55.8674 110.507 52.1363 110.165 50.2626L109.936 48.9591L110.474 47.8186C111.826 44.8532 112.25 42.8165 112.25 39.0854C112.25 35.9897 112.055 34.7025 111.207 32.1933C110.295 29.5376 109.106 27.5661 107.101 25.4805L105.831 24.1608L105.668 22.8247C105.016 17.6924 102.262 13.6191 97.798 11.2402C96.6575 10.6211 94.1972 9.75755 93.6269 9.75755C93.4477 9.75755 92.9752 9.18729 92.3723 8.25858C88.9182 2.96327 82.6453 -0.246498 76.242 0.0304871C73.684 0.144539 72.4131 0.535576 71.2889 1.54576C70.3439 2.39301 69.5781 3.82681 69.3174 5.19545C69.2034 5.78201 69.1545 12.7881 69.1545 25.6272C69.1708 37.3257 69.1219 45.2117 69.0241 45.3094C68.9427 45.3909 68.3072 45.4398 67.5903 45.4072L66.3032 45.3583L66.1076 44.788C65.961 44.3644 65.9121 39.5253 65.8958 25.3991C65.8958 9.8879 65.8469 6.38486 65.6677 5.50502C65.0649 2.66999 63.126 0.617043 60.6168 0.160835C59.183 -0.0998535 56.3969 -0.0346832 54.8979 0.291183ZM53.7411 14.3034C54.3602 14.9551 54.2299 15.3787 53.1871 16.1608C51.5415 17.3991 50.792 19.0284 50.9549 21.0162C51.1341 23.1995 52.3887 24.6822 54.6046 25.3339C55.0608 25.4642 55.5333 25.6761 55.6311 25.8064C55.9244 26.1648 55.8755 26.8329 55.5333 27.2076C54.5557 28.283 50.7268 26.2789 49.6189 24.1282C48.1525 21.2443 48.6902 17.5294 50.9223 15.3136C51.6881 14.5315 52.6983 13.8309 53.0242 13.8309C53.1708 13.8309 53.4967 14.0427 53.7411 14.3034ZM93.0404 15.8675C93.4477 16.2748 93.4477 16.2748 93.4314 19.3217L93.3988 22.3848L96.5923 22.3196C98.9548 22.2871 99.8509 22.3196 100.03 22.4663C100.405 22.7759 100.389 29.1791 100.014 29.4887C99.8021 29.6516 99.0363 29.7005 96.5434 29.6516L93.3499 29.6027V32.7799C93.3499 35.2239 93.3011 36.006 93.1218 36.2015C92.796 36.6088 86.9141 36.6088 86.5231 36.2178C86.295 36.006 86.2624 35.452 86.2624 32.7473V29.5213L85.4966 29.5701C85.0567 29.6027 83.6229 29.6516 82.2868 29.7005C79.0282 29.7819 79.2563 30.0589 79.2563 26.0019C79.2563 23.0854 79.2726 22.8247 79.5659 22.5477C79.8591 22.3034 80.2176 22.2708 83.0689 22.3196L86.2624 22.3848V19.175C86.2624 16.0467 86.2787 15.9653 86.6208 15.7209C86.9141 15.5091 87.517 15.4602 89.8143 15.4602C92.6004 15.4602 92.633 15.4602 93.0404 15.8675ZM41.7004 27.8593C42.2055 28.2667 42.1892 28.5925 41.6189 30.2219C41.3093 31.0691 41.293 31.3135 41.4397 31.8838C41.5537 32.2585 41.8307 32.7799 42.0588 33.0732C42.5313 33.6272 43.9162 34.3604 44.4865 34.3604C45.4152 34.3604 45.7085 36.0223 44.8612 36.4296C43.8999 36.9021 41.0812 35.5009 40.0873 34.0671C39.5659 33.3013 39.1749 32.1119 39.1749 31.2483C39.1749 30.287 39.7941 28.4948 40.3154 27.9734C40.8694 27.4194 41.1138 27.4031 41.7004 27.8593ZM99.7858 58.8328C99.2644 61.9285 96.8367 64.6169 93.8387 65.399C92.6493 65.7085 90.6941 65.7085 89.5862 65.4153C87.8917 64.9591 85.464 63.6393 86.9304 63.9815C87.24 64.0466 88.5108 64.0955 89.7654 64.0955C91.5414 64.0955 92.242 64.0303 92.9426 63.7859C96.3805 62.6454 98.6778 60.0874 99.7206 56.2748C99.9487 55.4438 99.9976 57.5456 99.7858 58.8328ZM54.2299 60.9346C54.735 61.3257 54.8001 62.0426 54.3765 62.4173C54.2136 62.564 53.6596 62.8735 53.1382 63.1342C51.2482 64.0466 50.2706 65.4479 50.124 67.4519C50.0262 68.8369 50.3847 70.0914 51.1504 70.9713C51.7207 71.6393 52.7472 72.3399 53.513 72.568C54.5557 72.8776 54.7675 73.6271 54.0181 74.344C53.5455 74.8002 53.5293 74.8002 52.7309 74.5721C51.7533 74.2788 50.2869 73.3338 49.5863 72.5191C48.7065 71.5089 48.1199 70.0588 48.0221 68.5762C47.794 65.236 49.1953 62.6943 52.0954 61.2442C52.8124 60.8857 53.4804 60.5925 53.5944 60.5925C53.7085 60.5925 53.9855 60.7391 54.2299 60.9346Z" fill="#3FA9F5"/>
<path d="M5.17091 98.9468C3.0365 99.4682 1.22795 100.951 0.576217 102.711C0.152593 103.835 0.120006 105.66 0.494751 106.768C0.836909 107.778 2.10778 109.13 3.28089 109.749C3.80228 110.026 5.17091 110.564 6.34402 110.955C9.27681 111.949 10.1729 112.666 10.1729 114.1C10.1729 115.582 8.95094 116.478 6.89799 116.478C5.13832 116.478 3.88374 116.104 2.25442 115.077L1.42347 114.556L0.625097 116.185C-0.303618 118.059 -0.368791 117.88 1.61898 118.841C4.58435 120.275 8.47844 120.356 11.0528 119.053C12.0304 118.548 13.2198 117.342 13.7086 116.332C14.1159 115.517 14.1648 115.24 14.1648 113.708C14.1648 112.242 14.1159 111.9 13.79 111.297C12.9265 109.684 11.3623 108.674 8.05481 107.599C5.98557 106.931 5.33384 106.605 4.7147 105.871C3.94892 104.959 4.25849 103.346 5.30126 102.792C6.49066 102.157 8.72284 102.32 10.6129 103.199C11.2972 103.509 11.8674 103.753 11.9 103.721C11.9326 103.704 12.2585 103.02 12.6332 102.222C13.0243 101.407 13.3664 100.706 13.3827 100.658C13.4968 100.446 10.6943 99.1912 9.58638 98.9631C8.23404 98.6698 6.32773 98.6698 5.17091 98.9468Z" fill="#3FA9F5"/>
<path d="M59.3948 98.8816C57.3582 99.3215 55.4682 100.739 54.6861 102.434C54.3276 103.216 54.2462 103.59 54.2462 104.829C54.2462 106.637 54.6535 107.647 55.7777 108.706C56.6739 109.537 57.6515 110.026 60.2584 110.922C62.458 111.672 63.4356 112.193 63.8592 112.845C64.2828 113.48 64.2665 114.719 63.8429 115.305C62.6698 116.902 59.2482 116.886 56.5272 115.256C55.3867 114.572 55.5008 114.491 54.458 116.543C53.7248 117.994 53.6596 117.814 55.3052 118.678C58.1403 120.128 61.4967 120.405 64.1525 119.411C66.8734 118.401 68.2421 116.462 68.2584 113.627C68.2584 112.519 68.1932 112.177 67.8022 111.395C66.9549 109.651 65.5863 108.755 62.0181 107.598C59.9814 106.93 59.5904 106.751 58.9549 106.148C58.2869 105.513 58.238 105.399 58.238 104.617C58.238 103.981 58.3195 103.688 58.6454 103.297C59.6392 102.124 62.181 102.075 64.5761 103.216C65.2441 103.525 65.7981 103.753 65.8144 103.737C65.847 103.704 66.2054 103.004 66.629 102.157C67.2319 100.951 67.3459 100.592 67.1667 100.478C66.5639 100.071 65.0649 99.3704 64.2665 99.1423C63.2075 98.8164 60.405 98.6698 59.3948 98.8816Z" fill="#3FA9F5"/>
<path d="M18.8246 109.277C16.8205 114.8 15.1423 119.427 15.0935 119.525C15.0446 119.688 15.5171 119.737 17.1464 119.737H19.2645L19.9326 117.863C20.291 116.82 20.6495 115.794 20.6983 115.582L20.7961 115.175H24.8205H28.845L29.3012 116.592C29.5619 117.391 29.904 118.417 30.0832 118.873L30.3928 119.737H32.5924C33.7981 119.737 34.7757 119.688 34.7757 119.639C34.7757 119.574 33.0812 114.963 30.9957 109.374L27.2156 99.2075H24.8368H22.4743L18.8246 109.277ZM26.2217 107.533C26.9386 109.619 27.5415 111.411 27.5741 111.525C27.623 111.704 27.1179 111.753 24.8368 111.753C22.6535 111.753 22.0507 111.704 22.0996 111.541C22.2625 110.873 24.7716 103.77 24.8368 103.77C24.8857 103.77 25.5048 105.464 26.2217 107.533Z" fill="#3FA9F5"/>
<path d="M36.731 109.472V119.737H38.7676H40.8043V116.25V112.763L43.7045 112.698C47.68 112.584 49.1138 112.095 50.792 110.303C52.0792 108.935 52.291 108.299 52.291 105.725C52.291 103.623 52.2747 103.476 51.8348 102.662C50.9875 101.049 49.456 99.9244 47.4682 99.4519C46.6698 99.2726 45.3338 99.2075 41.5863 99.2075H36.731V109.472ZM45.8715 102.808C47.403 103.134 48.3155 104.324 48.2829 105.969C48.2666 107.191 47.7615 108.087 46.7513 108.69C46.1647 109.032 45.8552 109.065 43.5252 109.146C42.1077 109.195 40.902 109.195 40.8694 109.163C40.8369 109.13 40.8043 107.631 40.8043 105.855V102.629H42.9224C44.0792 102.629 45.399 102.711 45.8715 102.808Z" fill="#3FA9F5"/>
<path d="M76.3236 104.275C72.7391 104.91 70.458 107.892 70.458 111.965C70.458 116.087 72.511 118.89 76.1281 119.737C77.2523 119.998 79.4519 119.998 80.5761 119.737C81.5537 119.509 83.4926 118.564 83.8999 118.108C84.1606 117.831 84.128 117.749 83.4111 116.771C83.0038 116.218 82.6128 115.745 82.5476 115.745C82.4824 115.745 81.9447 115.989 81.3419 116.299C80.5109 116.706 79.957 116.869 79.126 116.934C76.6169 117.114 74.9061 116.006 74.4499 113.904L74.3358 113.382H79.4682H84.6168L84.7146 112.486C84.8612 111.395 84.6005 109.488 84.128 108.266C83.0364 105.301 79.8103 103.655 76.3236 104.275ZM78.8979 107.289C79.794 107.647 80.3806 108.299 80.6413 109.211C81.0649 110.629 81.293 110.531 77.6759 110.499L74.4499 110.466L74.4987 110.01C74.5313 109.765 74.7594 109.179 75.0038 108.739C75.3623 108.12 75.6718 107.826 76.3236 107.468C77.2849 106.963 78.0181 106.914 78.8979 107.289Z" fill="#3FA9F5"/>
<path d="M108.372 104.275C107.101 104.454 105.586 105.155 105 105.839C104.266 106.67 103.989 107.452 103.973 108.755C103.957 111.379 105.26 112.552 109.187 113.464C110.197 113.708 111.191 114.034 111.419 114.214C112.283 114.898 112.022 116.283 110.947 116.739C109.757 117.228 107.362 116.902 105.716 116.006L104.886 115.55L104.217 116.902C103.484 118.368 103.468 118.319 104.592 118.89C106.971 120.079 110.05 120.275 112.413 119.395C113.586 118.955 114.841 117.814 115.215 116.837C115.639 115.713 115.606 114.165 115.118 113.171C114.433 111.77 113.26 111.15 109.48 110.189C108.144 109.847 107.606 109.407 107.606 108.625C107.606 107.354 108.666 106.865 110.702 107.191C111.37 107.305 112.348 107.566 112.869 107.761L113.798 108.152L114.45 106.865C114.808 106.148 115.101 105.546 115.101 105.497C115.101 105.464 114.71 105.285 114.254 105.089C112.364 104.34 110.083 104.03 108.372 104.275Z" fill="#3FA9F5"/>
<path d="M123.411 104.275C122.042 104.519 120.576 105.269 119.615 106.246C116.747 109.114 116.649 114.653 119.435 117.619C120.951 119.232 122.792 119.949 125.431 119.932C127.419 119.916 128.755 119.558 130.238 118.596L131.248 117.945L130.482 116.837C130.059 116.234 129.7 115.729 129.684 115.696C129.668 115.68 129.081 115.924 128.397 116.25C125.203 117.765 122.075 116.706 121.521 113.888L121.423 113.383H126.588H131.753L131.688 111.379C131.606 109.146 131.329 108.218 130.319 106.751C128.967 104.796 126.164 103.786 123.411 104.275ZM125.904 107.256C126.246 107.387 126.67 107.615 126.833 107.761C127.256 108.136 127.778 109.26 127.843 109.928L127.892 110.45L124.666 110.499C122.384 110.515 121.456 110.482 121.456 110.352C121.456 110.254 121.57 109.847 121.7 109.456C122.384 107.517 124.095 106.621 125.904 107.256Z" fill="#3FA9F5"/>
<path d="M94.1645 104.47C93.0892 104.829 92.193 105.35 91.7531 105.888C91.525 106.148 91.2969 106.376 91.248 106.376C91.1829 106.376 91.1992 105.969 91.248 105.48L91.3621 104.584H89.3743H87.4028V112.161V119.737H89.358H91.3132V114.767C91.3132 109.097 91.3458 108.902 92.633 108.055C93.5943 107.419 95.0769 107.338 95.8753 107.875C96.1849 108.087 96.5922 108.543 96.7714 108.902C97.081 109.505 97.0973 109.928 97.1462 114.637L97.1951 119.737H99.1503H101.105L101.057 113.822C100.991 107.24 100.959 107.045 99.8346 105.741C98.9384 104.682 98.1727 104.372 96.3641 104.307C95.3865 104.275 94.5719 104.34 94.1645 104.47Z" fill="#3FA9F5"/>
</svg>
