<svg width="110" height="184" viewBox="0 0 110 184" fill="none" xmlns="http://www.w3.org/2000/svg">
<path d="M43.5254 0.324181C41.4983 0.75972 40.8648 0.995636 39.0368 1.9393C37.2268 2.84667 35.073 4.75215 33.9328 6.42171C33.3174 7.31094 33.1726 7.41982 32.5935 7.41982C30.4759 7.43797 27.4352 8.65385 25.39 10.3234C22.476 12.6826 20.6299 16.6932 20.6299 20.6312V22.0648L18.9829 23.1355C17.0101 24.424 14.6391 26.8194 13.5531 28.6523C11.8337 31.5741 11.1279 34.3688 11.2546 37.8894C11.3269 39.7041 11.4355 40.3937 11.7613 41.2466C12.9016 44.2047 16.0327 45.4024 18.9286 43.9869C19.4716 43.7147 20.467 42.9888 21.1729 42.3355C22.5846 41.0289 23.1276 40.8111 23.7973 41.2466C24.6479 41.8092 24.4307 42.4081 22.838 43.9325C21.1548 45.5294 20.1593 46.2372 18.4037 47.072C16.6119 47.943 15.7793 48.0519 11.4717 48.0701L7.72521 48.1064L7.27274 47.5257C6.40398 46.4187 4.75695 45.8924 3.25472 46.2553C-0.437509 47.1446 -1.19767 52.0444 2.06018 53.968C3.49001 54.8028 5.33612 54.7483 6.71166 53.8228C7.25464 53.4599 8.0148 52.5343 8.17769 52.0444C8.21389 51.9355 8.88356 51.9355 9.98761 52.0081L11.7613 52.1533L11.8337 54.8754C11.9242 58.5774 12.5939 61.3721 14.0056 63.9672C14.7115 65.2557 14.6753 65.3101 13.2274 65.3101C12.431 65.3101 12.3224 65.2557 11.9242 64.6387C10.5668 62.5517 6.83836 62.6425 5.26373 64.802C3.34522 67.4152 4.95604 71.1536 8.19579 71.5892C9.82472 71.8251 11.5984 70.9358 12.3224 69.5566L12.7568 68.7582H17.1006C24.105 68.7582 24.847 68.3952 26.5845 64.2394C27.6524 61.7351 28.5935 60.9548 29.4985 61.8621C29.9329 62.2977 29.9691 62.8965 29.589 63.441C29.4442 63.6587 28.9555 64.7113 28.5031 65.782C27.5438 68.0504 26.9646 68.867 24.304 71.6799C23.2362 72.8232 21.7521 74.4202 21.0281 75.2368L19.7069 76.7067L18.4037 76.616C17.2997 76.5253 16.9377 76.5797 16.1413 76.9245C14.4943 77.6322 13.5712 79.0296 13.5712 80.8262C13.5712 83.3305 15.2726 84.982 17.8426 85.0001C18.9467 85.0001 19.2363 84.9275 19.9964 84.4557C21.3358 83.6209 21.9331 82.6409 22.0598 81.0984C22.1683 79.8281 22.1683 79.8099 23.4172 78.3763C24.1231 77.5778 24.7384 76.9245 24.8289 76.9245C24.9013 76.9245 24.9737 77.1967 24.9737 77.5415C24.9737 78.4852 25.8244 81.2073 26.5664 82.6409C27.3628 84.1835 29.4985 86.3975 30.9283 87.1597C31.4713 87.45 32.4668 87.8674 33.1545 88.0852C34.2043 88.4118 34.4577 88.5933 34.9464 89.2829C35.8694 90.5714 37.4802 92.1502 38.6024 92.8217C42.4394 95.1808 47.8149 95.5438 51.2356 93.6746C52.4663 93.0031 54.222 91.0795 54.8735 89.7003C55.7966 87.7222 55.9233 86.3249 55.9233 78.6848L55.9052 71.8069L53.679 64.5298C50.1678 53.1151 48.4664 47.5075 48.2492 46.6364L48.0321 45.8198L46.9823 48.5419C45.2991 52.861 44.8647 53.841 44.5208 54.1495C44.2312 54.4217 43.3625 54.4398 36.6115 54.4398L29.046 54.4217L28.6478 53.9498C28.1049 53.351 28.123 52.7521 28.6659 52.117L29.1003 51.6088H35.797H42.5118L44.738 45.9287C45.9687 42.8073 47.109 40.0852 47.29 39.8856C47.7244 39.4319 48.7379 39.4319 49.1723 39.8856C49.3533 40.0852 50.1858 42.4444 51.0003 45.112C51.8148 47.7797 53.6247 53.6413 55.0002 58.1056L57.4979 66.2357L58.0952 64.5479C58.421 63.6224 60.5205 58.033 62.7467 52.1533C67.1448 40.5207 67.181 40.4482 68.5022 40.4482C69.7329 40.4482 69.9501 40.8474 71.2352 45.4387C71.8686 47.7434 72.6469 50.4837 72.9546 51.5544L73.5157 53.4962L74.0224 52.988C75.3618 51.6451 76.4477 51.4999 83.977 51.5544L90.1669 51.6088L90.6013 52.117C91.1262 52.734 91.1624 53.3147 90.6737 53.9317L90.3117 54.4035L83.7417 54.458C77.2984 54.5124 77.1717 54.5124 76.321 54.9298C75.8143 55.1839 75.2532 55.6739 74.9093 56.1457C74.0767 57.3071 73.1537 57.6701 72.1582 57.2527C71.7962 57.1075 71.38 56.799 71.2352 56.5631C70.9999 56.2001 68.6289 47.689 68.3755 46.3461C68.3393 46.1465 67.7239 47.562 66.9819 49.5219C66.2398 51.4636 64.7557 55.3835 63.6697 58.2326C62.5838 61.0818 61.172 64.9472 60.5205 66.8527L59.344 70.3007L59.3621 78.0133C59.3802 86.5426 59.4526 87.3411 60.4843 89.4462C61.2263 90.9706 63.0182 92.7854 64.6109 93.5657C68.4117 95.4893 75.0179 95.5256 80.8096 93.6927C83.8141 92.7491 87.9407 90.4262 90.004 88.5389C93.2619 85.5445 95.7957 80.4088 96.212 75.9082L96.3206 74.6379L97.4066 74.0391C98.7278 73.3132 100.936 71.2444 102.004 69.7381C103.054 68.2682 104.158 65.909 104.628 64.1306C105.135 62.2251 105.298 58.0693 104.918 55.9824L104.664 54.5306L105.262 53.2602C106.764 49.9574 107.234 47.689 107.234 43.5332C107.234 40.0852 107.017 38.6516 106.076 35.8569C105.063 32.8988 103.741 30.703 101.515 28.3801L100.103 26.9102L99.9223 25.4221C99.1984 19.7056 96.1396 15.1688 91.1805 12.5193C89.9135 11.8297 87.1805 10.8678 86.5471 10.8678C86.348 10.8678 85.8231 10.2327 85.1534 9.19827C81.3164 3.30035 74.3482 -0.274689 67.2353 0.0338211C64.3937 0.160851 62.982 0.59639 61.7331 1.72153C60.6834 2.6652 59.8327 4.26217 59.5431 5.78655C59.4164 6.43987 59.3621 14.2433 59.3621 28.5434C59.3802 41.5733 59.3259 50.3567 59.2173 50.4655C59.1268 50.5563 58.421 50.6107 57.6246 50.5744L56.1948 50.52L55.9776 49.8848C55.8147 49.413 55.7604 44.0232 55.7423 28.2894C55.7423 11.013 55.688 7.11132 55.4889 6.13136C54.8192 2.9737 52.6654 0.687126 49.8782 0.179001C48.2854 -0.111359 45.1905 -0.0387726 43.5254 0.324181ZM42.2403 15.931C42.9281 16.6569 42.7833 17.1287 41.6249 17.9998C39.7969 19.379 38.9644 21.1937 39.1454 23.4077C39.3445 25.8395 40.7381 27.4909 43.1996 28.2168C43.7063 28.362 44.2312 28.5979 44.3398 28.7431C44.6656 29.1423 44.6113 29.8864 44.2312 30.3037C43.1453 31.5015 38.892 29.2693 37.6612 26.8739C36.0323 23.6618 36.6296 19.5242 39.1092 17.0561C39.9598 16.185 41.082 15.4047 41.444 15.4047C41.6068 15.4047 41.9688 15.6406 42.2403 15.931ZM85.8955 17.6731C86.348 18.1268 86.348 18.1268 86.3299 21.5204L86.2937 24.9321L89.8411 24.8595C92.4655 24.8232 93.4609 24.8595 93.66 25.0228C94.0763 25.3676 94.0582 32.4996 93.6419 32.8444C93.4066 33.0259 92.556 33.0803 89.7868 33.0259L86.2394 32.9714V36.5102C86.2394 39.2323 86.1851 40.1034 85.986 40.3211C85.624 40.7748 79.0902 40.7748 78.6558 40.3393C78.4024 40.1034 78.3662 39.4863 78.3662 36.4739V32.8807L77.5156 32.9351C77.0269 32.9714 75.4342 33.0259 73.9501 33.0803C70.3302 33.171 70.5836 33.4795 70.5836 28.9608C70.5836 25.7124 70.6017 25.4221 70.9275 25.1136C71.2533 24.8414 71.6515 24.8051 74.8188 24.8595L78.3662 24.9321V21.3571C78.3662 17.8727 78.3843 17.782 78.7644 17.5098C79.0902 17.2739 79.7599 17.2194 82.3119 17.2194C85.4068 17.2194 85.443 17.2194 85.8955 17.6731ZM28.865 31.0296C29.4261 31.4833 29.408 31.8463 28.7745 33.661C28.4307 34.6047 28.4126 34.8769 28.5754 35.5121C28.7021 35.9294 29.0098 36.5102 29.2632 36.8368C29.7881 37.4538 31.3265 38.2705 31.96 38.2705C32.9916 38.2705 33.3174 40.1215 32.3763 40.5752C31.3084 41.1015 28.1773 39.5408 27.0732 37.9438C26.494 37.0909 26.0597 35.7661 26.0597 34.8043C26.0597 33.7336 26.7474 31.7374 27.3266 31.1567C27.942 30.5397 28.2135 30.5215 28.865 31.0296ZM93.3885 65.5279C92.8094 68.9759 90.1126 71.9702 86.7824 72.8413C85.4611 73.1861 83.2892 73.1861 82.0585 72.8595C80.1762 72.3513 77.4794 70.8814 79.1083 71.2625C79.4522 71.3351 80.8639 71.3895 82.2576 71.3895C84.2304 71.3895 85.0086 71.3169 85.7869 71.0447C89.6058 69.7744 92.1578 66.9253 93.3162 62.6788C93.5695 61.7532 93.6238 64.0943 93.3885 65.5279ZM42.7833 67.8689C43.3444 68.3045 43.4168 69.103 42.9462 69.5203C42.7652 69.6837 42.1498 70.0285 41.5706 70.3188C39.4711 71.3351 38.3852 72.8958 38.2223 75.1279C38.1137 76.6704 38.5119 78.0678 39.3625 79.0477C39.996 79.7918 41.1363 80.5721 41.9869 80.8262C43.1453 81.171 43.3806 82.0058 42.548 82.8043C42.0231 83.3124 42.005 83.3124 41.1182 83.0583C40.0322 82.7317 38.4033 81.6791 37.625 80.7718C36.6477 79.6466 35.9961 78.0315 35.8875 76.3801C35.6341 72.6599 37.1907 69.8289 40.4123 68.2137C41.2087 67.8145 41.9507 67.4878 42.0774 67.4878C42.2041 67.4878 42.5118 67.6512 42.7833 67.8689Z" fill="#3FA9F5"/>
<path d="M17.1645 176.202C15.6861 176.202 14.275 176 12.931 175.597C11.6095 175.194 10.5679 174.701 9.80637 174.118L11.1503 171.565C11.9119 172.08 12.8526 172.517 13.9726 172.875C15.0925 173.234 16.2349 173.413 17.3996 173.413C18.9004 173.413 19.9755 173.2 20.6251 172.775C21.2971 172.349 21.6331 171.755 21.6331 170.994C21.6331 170.434 21.4315 169.997 21.0283 169.683C20.6251 169.37 20.0875 169.135 19.4156 168.978C18.766 168.821 18.038 168.687 17.2317 168.575C16.4253 168.44 15.6189 168.284 14.8126 168.104C14.0062 167.903 13.267 167.634 12.595 167.298C11.9231 166.94 11.3855 166.458 10.9823 165.853C10.5791 165.226 10.3775 164.397 10.3775 163.367C10.3775 162.292 10.6799 161.351 11.2847 160.545C11.8895 159.738 12.7406 159.122 13.8382 158.697C14.9582 158.249 16.2797 158.025 17.8028 158.025C18.9676 158.025 20.1435 158.17 21.3307 158.462C22.5402 158.73 23.5258 159.122 24.2874 159.637L22.9098 162.191C22.1035 161.653 21.2635 161.284 20.3899 161.082C19.5164 160.881 18.6428 160.78 17.7692 160.78C16.3581 160.78 15.3053 161.015 14.611 161.485C13.9166 161.933 13.5694 162.516 13.5694 163.233C13.5694 163.837 13.771 164.308 14.1742 164.644C14.5998 164.957 15.1373 165.204 15.7869 165.383C16.4589 165.562 17.1981 165.719 18.0044 165.853C18.8108 165.965 19.6172 166.122 20.4235 166.324C21.2299 166.503 21.9579 166.76 22.6074 167.096C23.2794 167.432 23.817 167.903 24.2202 168.508C24.6457 169.112 24.8585 169.919 24.8585 170.927C24.8585 172.002 24.5449 172.931 23.9178 173.715C23.2906 174.499 22.4058 175.115 21.2635 175.563C20.1211 175.989 18.7548 176.202 17.1645 176.202ZM36.8188 176.202C34.9149 176.202 33.235 175.81 31.7791 175.026C30.3455 174.242 29.2256 173.167 28.4192 171.8C27.6352 170.434 27.2432 168.866 27.2432 167.096C27.2432 165.327 27.624 163.759 28.3856 162.393C29.1696 161.026 30.2335 159.962 31.5775 159.201C32.9438 158.417 34.4781 158.025 36.1805 158.025C37.9052 158.025 39.4283 158.406 40.7499 159.167C42.0714 159.929 43.1018 161.004 43.841 162.393C44.6025 163.759 44.9833 165.36 44.9833 167.197C44.9833 167.332 44.9721 167.488 44.9497 167.668C44.9497 167.847 44.9385 168.015 44.9161 168.172H29.7631V165.853H43.2362L41.9258 166.66C41.9482 165.517 41.713 164.498 41.2203 163.602C40.7275 162.706 40.0443 162.012 39.1707 161.519C38.3196 161.004 37.3228 160.746 36.1805 160.746C35.0605 160.746 34.0638 161.004 33.1902 161.519C32.3166 162.012 31.6335 162.717 31.1407 163.636C30.6479 164.532 30.4015 165.562 30.4015 166.727V167.264C30.4015 168.452 30.6703 169.515 31.2079 170.456C31.7679 171.375 32.5406 172.091 33.5262 172.607C34.5117 173.122 35.6429 173.379 36.9196 173.379C37.9724 173.379 38.9244 173.2 39.7755 172.842C40.6491 172.483 41.4107 171.946 42.0602 171.229L43.841 173.312C43.0346 174.253 42.0266 174.97 40.8171 175.462C39.6299 175.955 38.2972 176.202 36.8188 176.202ZM58.9706 158.025C60.4265 158.025 61.7032 158.305 62.8008 158.865C63.9207 159.425 64.7943 160.276 65.4215 161.418C66.0487 162.561 66.3622 164.005 66.3622 165.752V176H63.1368V166.122C63.1368 164.397 62.7112 163.098 61.86 162.225C61.0313 161.351 59.8553 160.914 58.3322 160.914C57.1898 160.914 56.1931 161.138 55.3419 161.586C54.4907 162.034 53.83 162.695 53.3596 163.569C52.9116 164.442 52.6876 165.528 52.6876 166.828V176H49.4622V158.193H52.5532V162.997L52.0492 161.721C52.6316 160.556 53.5276 159.649 54.7371 158.999C55.9467 158.35 57.3578 158.025 58.9706 158.025ZM77.4385 176.202C75.9602 176.202 74.549 176 73.2051 175.597C71.8835 175.194 70.842 174.701 70.0804 174.118L71.4243 171.565C72.1859 172.08 73.1267 172.517 74.2466 172.875C75.3666 173.234 76.5089 173.413 77.6737 173.413C79.1744 173.413 80.2496 173.2 80.8991 172.775C81.5711 172.349 81.9071 171.755 81.9071 170.994C81.9071 170.434 81.7055 169.997 81.3023 169.683C80.8991 169.37 80.3616 169.135 79.6896 168.978C79.04 168.821 78.3121 168.687 77.5057 168.575C76.6993 168.44 75.893 168.284 75.0866 168.104C74.2802 167.903 73.5411 167.634 72.8691 167.298C72.1971 166.94 71.6595 166.458 71.2563 165.853C70.8532 165.226 70.6516 164.397 70.6516 163.367C70.6516 162.292 70.954 161.351 71.5587 160.545C72.1635 159.738 73.0147 159.122 74.1122 158.697C75.2322 158.249 76.5537 158.025 78.0769 158.025C79.2416 158.025 80.4176 158.17 81.6047 158.462C82.8143 158.73 83.7998 159.122 84.5614 159.637L83.1839 162.191C82.3775 161.653 81.5375 161.284 80.664 161.082C79.7904 160.881 78.9168 160.78 78.0433 160.78C76.6321 160.78 75.5794 161.015 74.885 161.485C74.1906 161.933 73.8434 162.516 73.8434 163.233C73.8434 163.837 74.045 164.308 74.4482 164.644C74.8738 164.957 75.4114 165.204 76.0609 165.383C76.7329 165.562 77.4721 165.719 78.2785 165.853C79.0848 165.965 79.8912 166.122 80.6976 166.324C81.5039 166.503 82.2319 166.76 82.8815 167.096C83.5534 167.432 84.091 167.903 84.4942 168.508C84.9198 169.112 85.1326 169.919 85.1326 170.927C85.1326 172.002 84.819 172.931 84.1918 173.715C83.5646 174.499 82.6799 175.115 81.5375 175.563C80.3952 175.989 79.0288 176.202 77.4385 176.202ZM97.0929 176.202C95.189 176.202 93.509 175.81 92.0531 175.026C90.6196 174.242 89.4996 173.167 88.6932 171.8C87.9093 170.434 87.5173 168.866 87.5173 167.096C87.5173 165.327 87.8981 163.759 88.6596 162.393C89.4436 161.026 90.5076 159.962 91.8515 159.201C93.2178 158.417 94.7522 158.025 96.4545 158.025C98.1792 158.025 99.7024 158.406 101.024 159.167C102.345 159.929 103.376 161.004 104.115 162.393C104.877 163.759 105.257 165.36 105.257 167.197C105.257 167.332 105.246 167.488 105.224 167.668C105.224 167.847 105.213 168.015 105.19 168.172H90.0372V165.853H103.51L102.2 166.66C102.222 165.517 101.987 164.498 101.494 163.602C101.002 162.706 100.318 162.012 99.4448 161.519C98.5936 161.004 97.5969 160.746 96.4545 160.746C95.3346 160.746 94.3378 161.004 93.4642 161.519C92.5907 162.012 91.9075 162.717 91.4147 163.636C90.9219 164.532 90.6755 165.562 90.6755 166.727V167.264C90.6755 168.452 90.9443 169.515 91.4819 170.456C92.0419 171.375 92.8147 172.091 93.8002 172.607C94.7858 173.122 95.9169 173.379 97.1937 173.379C98.2464 173.379 99.1984 173.2 100.05 172.842C100.923 172.483 101.685 171.946 102.334 171.229L104.115 173.312C103.309 174.253 102.301 174.97 101.091 175.462C99.904 175.955 98.5712 176.202 97.0929 176.202Z" fill="#3FA9F5"/>
<path d="M19.4834 142.44C17.4288 142.44 15.4599 142.171 13.5766 141.633C11.6933 141.071 10.1768 140.349 9.02727 139.469L11.0451 134.993C12.1458 135.775 13.4421 136.423 14.9341 136.937C16.4505 137.426 17.9792 137.671 19.5201 137.671C20.6941 137.671 21.6358 137.561 22.3451 137.341C23.0788 137.096 23.6169 136.766 23.9593 136.35C24.3018 135.934 24.473 135.457 24.473 134.919C24.473 134.234 24.2039 133.696 23.6658 133.305C23.1277 132.889 22.4184 132.559 21.5379 132.314C20.6574 132.045 19.6791 131.801 18.6029 131.581C17.5511 131.336 16.4872 131.042 15.411 130.7C14.3593 130.358 13.3932 129.917 12.5126 129.379C11.6321 128.841 10.9106 128.132 10.348 127.251C9.80995 126.371 9.5409 125.246 9.5409 123.876C9.5409 122.409 9.93224 121.076 10.7149 119.877C11.5221 118.654 12.7205 117.688 14.3104 116.979C15.9246 116.245 17.9425 115.878 20.3639 115.878C21.9782 115.878 23.568 116.074 25.1334 116.465C26.6987 116.832 28.0806 117.395 29.2791 118.153L27.4447 122.665C26.2462 121.981 25.0477 121.479 23.8493 121.161C22.6508 120.819 21.4768 120.648 20.3272 120.648C19.1776 120.648 18.236 120.782 17.5022 121.051C16.7685 121.32 16.2426 121.675 15.9246 122.115C15.6067 122.531 15.4477 123.02 15.4477 123.583C15.4477 124.243 15.7167 124.781 16.2548 125.197C16.7929 125.588 17.5022 125.906 18.3827 126.151C19.2633 126.395 20.2294 126.64 21.2811 126.884C22.3573 127.129 23.4212 127.41 24.473 127.728C25.5492 128.046 26.5275 128.474 27.408 129.012C28.2885 129.55 28.9978 130.26 29.5359 131.14C30.0985 132.021 30.3798 133.134 30.3798 134.479C30.3798 135.922 29.9762 137.243 29.169 138.441C28.3619 139.64 27.1512 140.606 25.5369 141.34C23.9471 142.073 21.9293 142.44 19.4834 142.44ZM31.0656 142L42.5123 116.318H48.3824L59.8658 142H53.6288L44.2367 119.327H46.5847L37.1559 142H31.0656ZM36.789 136.497L38.3666 131.984H51.5743L53.1886 136.497H36.789ZM62.5303 142V116.318H73.6468C75.9459 116.318 77.9271 116.697 79.5903 117.456C81.2535 118.189 82.5376 119.253 83.4425 120.648C84.3475 122.042 84.8 123.705 84.8 125.637C84.8 127.545 84.3475 129.196 83.4425 130.59C82.5376 131.984 81.2535 133.06 79.5903 133.819C77.9271 134.552 75.9459 134.919 73.6468 134.919H65.8322L68.4738 132.241V142H62.5303ZM68.4738 132.901L65.8322 130.076H73.3166C75.151 130.076 76.5207 129.685 77.4257 128.902C78.3306 128.12 78.7831 127.031 78.7831 125.637C78.7831 124.218 78.3306 123.118 77.4257 122.335C76.5207 121.552 75.151 121.161 73.3166 121.161H65.8322L68.4738 118.336V132.901ZM97.8397 142.44C95.7852 142.44 93.8163 142.171 91.933 141.633C90.0496 141.071 88.5332 140.349 87.3836 139.469L89.4015 134.993C90.5021 135.775 91.7984 136.423 93.2904 136.937C94.8069 137.426 96.3355 137.671 97.8764 137.671C99.0505 137.671 99.9921 137.561 100.701 137.341C101.435 137.096 101.973 136.766 102.316 136.35C102.658 135.934 102.829 135.457 102.829 134.919C102.829 134.234 102.56 133.696 102.022 133.305C101.484 132.889 100.775 132.559 99.8943 132.314C99.0138 132.045 98.0354 131.801 96.9592 131.581C95.9075 131.336 94.8435 131.042 93.7674 130.7C92.7156 130.358 91.7495 129.917 90.869 129.379C89.9885 128.841 89.267 128.132 88.7044 127.251C88.1663 126.371 87.8973 125.246 87.8973 123.876C87.8973 122.409 88.2886 121.076 89.0713 119.877C89.8784 118.654 91.0769 117.688 92.6667 116.979C94.281 116.245 96.2988 115.878 98.7203 115.878C100.335 115.878 101.924 116.074 103.49 116.465C105.055 116.832 106.437 117.395 107.635 118.153L105.801 122.665C104.603 121.981 103.404 121.479 102.206 121.161C101.007 120.819 99.8331 120.648 98.6836 120.648C97.534 120.648 96.5923 120.782 95.8586 121.051C95.1248 121.32 94.599 121.675 94.281 122.115C93.963 122.531 93.804 123.02 93.804 123.583C93.804 124.243 94.0731 124.781 94.6112 125.197C95.1493 125.588 95.8586 125.906 96.7391 126.151C97.6196 126.395 98.5857 126.64 99.6375 126.884C100.714 127.129 101.778 127.41 102.829 127.728C103.906 128.046 104.884 128.474 105.764 129.012C106.645 129.55 107.354 130.26 107.892 131.14C108.455 132.021 108.736 133.134 108.736 134.479C108.736 135.922 108.333 137.243 107.525 138.441C106.718 139.64 105.508 140.606 103.893 141.34C102.303 142.073 100.286 142.44 97.8397 142.44Z" fill="#3FA9F5"/>
</svg>
